<?xml version="1.0" encoding="UTF-8"?>
<svg version="1.1" viewBox="0 0 1646 2048" width="2988" height="3716" xmlns="http://www.w3.org/2000/svg">
<path transform="translate(753,73)" d="m0 0h15l14 3 13 5 16 10 5 1 6-2 8-1h13l16 4 14 7 11 9 9 11 3 4 5-1 13-4 8 1 2 3-1 4-5 2-14 2 4 3 10 6 9 9 8 13 6 18 3 16 2 16 6 2 8 6 13 12 7 7 15 12 6 8 7 16 10 28 8 18 8 15 9 12 8 9 14 11 16 11 5 1 6-5-1-3 9-26 5-27 2-11 10-18h2l1 23-3 15-8 24-5 13 2 5 10 20 10 19 6 13 7 2 13 2 5 4 9 15 15 26 10 16 14 23 39 65 16 28 11 22 8 21 5 20 1 7v9l-4 16-6 11-8 8-10 6-9 3-18 3-16 1h-37l-29-2-38-5-30-6-26-7-35-11-4-1h-7l-3 2 2 6 11 12 9 9 7 8 10 11 10 13 12 18 12 22 10 23 8 26 5 25 2 26v17l-2 24-6 27-8 23-8 16-6 11-11 16-11 13-24 24-3 2-10-1-56-16-9-2 5 25 12 52 10 39 12 42 12 36 15 40 36 89 8 19 2 1 5-1 2 12 19 10 39 18 32 14 56 24 43 19 29 14 30 15 22 12 27 15 28 15 23 13 12 9 20 11 2 2-1 11 5 2 24 14 8 4 15 4 21 9 30 13 4 2-1 7-10 33 12-32 1 4-11 32-11 26-9 20-13 27-12 22-10 17-14 22-11 16-14 19-5 6-3 1-2-3-5-3-5-10-3-14 3-2 11 1 13 4 6 1 5-7 1-5-19-7-19-5-1-1 1-17 3-23 2-4 15-1v-5l-11-1-3-1v-9l2-1 17-1 1-4-1-1-13-1-4-1v-8l1-3 3-1 18-1 3-1v-4l-6-1-16-1v-11l1-1 23-2 4-2 2-5-14 1h-12l-5-3-8-11-9-13-3-10v-3l-5 5-2 3-5-1-6-4-12-4-3 12-1 3-5-1-21-9-35-16-40-17-43-17-43-16-50-18-54-19-36-13-60-21-25-10-21-11-15-12-9-11-12-16-13-19-14-20-27-41-15-23-13-20-16-25-10-15-29-44-22-33-14-22-10-15-3 3-9 19-7 19-3 13-1 8v20l3 12 6 11 7 6 11 4h10l13-4h2l2-6 4-3h9l6 4 1 2v8l-5 6-6 1-8-3-3-1-17 4-13-1-10-4-9-8-6-10-4-13-1-8v-16l2-15 6-20 2-10-10 10-8 7-8 8-8 7-26 24-14 14-8 7-45 45-7 8-13 14-10 14-6 18-15 52-14 47-20 64-19 57-12 34-16 43-20 51-16 40-3 4h-14l-4 17-4 15h-12l-2 16v16l1 2 1 38 56-2 145-2h289l101 2 74 2 137 5 125 6 80 5 66 5 66 7 34 5 18 4 4 3-1 3-10 4-24 5-35 5-46 5-79 6-191 6-71 3-101 3-128 3-100 1-101-1-130-3-121-3-148-6-74-4-52-5-52-7-22-4-18-5-5-3 1-5 5-3 14-4 4-8 5-16 5-6 14-9 9-4 13-2 19-8 25-7 24-5 12-1 4 2 5-4 8-2 10 2 4-5 9-2 5 1h4l4-6 12-11 15-15 3-5-17-4-1-1-1-31-13-1-4-2 2-10 17-62 14-54 12-53 12-58 11-60 16-96 8-45 5-23 6-18 8-16 8-14 29-43 8-12 11-16 16-23 12-17 13-18 28-38 16-21 9-12 10-13 11-14 14-18 11-14 13-16 7-8 7-12-5-1-14-10-11-9h-2l4 9 7 12 4 7-2 2-5-1-5-5-9-16-6-16-4-20-1-17v-23l3-15 7-19 9-16 11-15 11-14 11-23 6-22 3-19 1-11v-37l-17 6-18 7-28 8-29 6-16 2h-38l-20-4-15-6-11-8-8-8-8-14-4-15-1-6v-10l3-21 7-25 9-24 18-40 24-48 10-19 17-33 6-7 12-3 6-9 14-26 9-16 10-5 7 2 3-12 6-47 5-31 5-16 6-8 8-7 26-14 9-3 29-4 13-4 11-6 5-5 3-13 7-27-3 1h-11l-12-3-11-7-7-6-11-14-9-17-5-16-3-21v-7l3-9 7 1 15 7 14 4h23l16-4 35-12 17-4zm198 204m-4 7-10 19-9 11-4 5 2 5 7 7 15 11h3v-33l3-19-1-5-1-1zm-36 45-10 8-11 5-9 2-4 5-5 13v12l2 23 1 27 1 13 2 2 43 3 27 5 26 8 20 9 15 8 19 12 13 9h1l2-14 3-7v-6l-12-18-12-17v-6l1-4-7-7-14-9-24-13-15-9-16-12-14-12-9-10-10-15-3-5zm-258 14-5 10-8 10-9 8-9 7-10 9-12 15-8 12v8l-17 35 1 5 7 8 2 4v8l-10 35-4 16 5-2 15-13 12-10 19-14 23-15 22-12 18-8 22-8-1-13-1-9v-52l-8-14-1-1-15-3-12-6-13-10zm440 28 1 2zm-381 21-1 16v18l3 22 2 1 23-5 21-3 18-2 2-3v-8l-5-25-3-11-7 1-19 5h-17l-12-4zm207 766 1 11 9 44 12 50 12 41 14 42 8 18 7 11 2 1-2-5-9-20-10-28-14-46-8-29-9-38-11-48zm-328 78m-1 1-10 12-10 14-6 9 1 2 12-16 10-14 4-5zm-27 37m-1 1m-1 2m423 99 1 2zm1 2m1 1m557 320-1 5 2-2zm-2 5-1 5 2-2zm-2 5-1 5 2-2zm-2 5 1 2zm-1 2 1 3zm-1 3 1 2z" fill="#22415F"/>
<path transform="translate(730,774)" d="m0 0h2l1 28 3 24 6 27 12 36 10 26 7 24 5 25 3 29v14l-121-29-40-8 6 2 2 5-1 1 29 7 31 8 30 8 2 2 13 2 40 10 10 3v16l-3 35-6 32-7 25-7 19-11 24-12 21-3 2-10-16-14-22-24-34-10-13-5-4 4 20 12 40 18 58 2 13-8 7-8 8-8 7-26 24-14 14-8 7-45 45-7 8-13 14-10 14-6 18-15 52-14 47-20 64-19 57-12 34-16 43-20 51-16 40-3 4h-14l-4 17-4 15h-12l-2 16v16l1 2 1 38 56-2 145-2h289l101 2 74 2 137 5 125 6 80 5 66 5 66 7 34 5 18 4 4 3-1 3-10 4-24 5-35 5-46 5-79 6-191 6-71 3-101 3-128 3-100 1-101-1-130-3-121-3-148-6-74-4-52-5-52-7-22-4-18-5-5-3 1-5 5-3 14-4 4-8 5-16 5-6 14-9 9-4 13-2 19-8 25-7 24-5 12-1 4 2 5-4 8-2 10 2 4-5 9-2 5 1h4l4-6 12-11 15-15 3-5-17-4-1-1-1-31-13-1-4-2 2-10 17-62 14-54 12-53 12-58 11-60 16-96 8-45 5-23 6-18 8-16 8-14 29-43 8-12 11-16 16-23 12-17 13-18 28-38 16-21 9-12 10-13 11-14 14-18 11-14 13-16 7-8 7-12-5-1-14-10-11-9h-2l4 9 7 12 4 7-2 2-5-1-5-5-9-16-6-16-4-20-1-17v-23l3-15 7-19 9-16 11-15 4-4 5 1 24-12 24-8 19-5h2l-3 12-20 66-18 56-8 23-1 7 3-3 24-72 12-39 15-50 5-2 33-7 27-8zm-139 462m-1 1-10 12-10 14-6 9 1 2 12-16 10-14 4-5z" fill="#21405F"/>
<path transform="translate(889,188)" d="m0 0h18l13 4 10 7 8 8 5 3h3v2l6 2 8 6 13 12 7 7 15 12 6 8 7 16 10 28 8 18 8 15 9 12 8 9 14 11 16 11 5 1 6-5-1-3 9-26 5-27 2-11 10-18h2l1 23-3 15-8 24-5 13 2 5 10 20 10 19 6 13 7 2 13 2 5 4 9 15 15 26 10 16 14 23 39 65 16 28 11 22 8 21 5 20 1 7v9l-4 16-6 11-8 8-10 6-9 3-18 3-16 1h-37l-29-2-38-5-30-6-26-7-35-11-4-1h-7l-3 2 2 6 11 12 9 9 7 8 10 11 10 13 12 18 12 22 10 23 8 26 5 25 2 26v17l-2 24-6 27-8 23-8 16-6 11-11 16-11 13-24 24-3 2-10-1-56-16-10-1-1-3-29-8-42-11-39-10-46-12-5-2-3-36-4-24-6-24-10-29-9-24-8-26-6-32-1-11v-30l19-10 15-9 11-8 10-8 14-14 13-17 11-18 10-21 7-20 6-25 3-20 1-10v-54l-2-29v-16l15-6 11-6 9-7 5-4 7-9 1-4-4 1-9 11-10 8-12 7-10 4h-4v-54l4-31 6-25 5-13h1l2 16 2 43 1 13 1 1 43 3 27 5 26 8 20 9 15 8 19 12 13 9 2-13 3-7v-6l-12-18-12-17v-6l1-4-9-8-16-10-23-12-11-7-16-12-14-12-10-11-10-15-3-4-2-2-20-2-19-6-10-7-8-8-8-13-5-15-2-14 1-14 4-16 8-16 7-9 10-10 15-8zm62 89m-4 7-10 19-9 11-4 5 2 5 7 7 15 11h3v-33l3-19-1-5-1-1zm146 87 1 2z" fill="#FC6057"/>
<path transform="translate(723,159)" d="m0 0h11l10 6 10 8 11 5 17 3 5 16 6 10 9 8 12 5 3 1-1 8-3 17v22l3 19 5 15 8 14 8 10 9 8 14 7 12 3-8 18-6 19-5 23-3 23-1 12v51l-1 1h-34l-16-4-14-7-10-8-7-7-5-7-3 2 8 11 7 7 11 7 16 7 15 3h33l2 16 2 34v41l-2 23-5 25-6 20-10 24-11 19-12 17-11 12-8 8-17 13-19 11-10 5h-2l1-12 7-30 5-17 10-28 7-26 4-21 2-21v-24l-2-21-4-17-6-16-7-13-13-15-8-8-7-10-6-10-6-16-1-10 23-5 21-3 18-2 1-2v-8l-5-25-2-11-21 6-5 1h-17l-12-4-5-3-2-5-4-2h-1l-2-10-7-12-15-3-12-6-13-10-3-1-1 5-9 13-8 8-12 9-11 10-13 17-6 9v8l-17 35 1 5 7 8 2 4v8l-10 35-4 15 5-3 14-12 12-10 19-14 23-15 22-12 18-8 20-7 3 1 8 21 8 15 9 12 12 12 9 12 7 14 5 15 3 19 1 9v32l-4 27-6 24-14 42-7 25-5 25-1 10-24 8-26 6-14 3h-3l1-6 10-33 12-40 14-48 1-6h-2l-9 29-16 54-16 50-2 2-28 7-23 8-15 7-2-1 11-23 6-22 3-19 1-11v-37l-17 6-18 7-28 8-29 6-16 2h-38l-20-4-15-6-11-8-8-8-8-14-4-15-1-6v-10l3-21 7-25 9-24 18-40 24-48 10-19 17-33 6-7 12-3 6-9 14-26 9-16 10-5 7 2 3-12 6-47 5-31 5-16 6-8 8-7 26-14 9-3 29-4 13-4 11-6 5-5 3-13 7-28 22-15 10-5z" fill="#FC6057"/>
<path transform="translate(301,1814)" d="m0 0 73 8 7 1 1 4-2 13v16l1 2 1 38 56-2 145-2h289l101 2 74 2 137 5 125 6 80 5 66 5 66 7 34 5 18 4 4 3-1 3-10 4-24 5-35 5-46 5-79 6-191 6-71 3-101 3-128 3-100 1-101-1-130-3-121-3-148-6-74-4-52-5-52-7-22-4-18-5-5-3 1-5 5-3 14-4 4-8 5-16 5-6 14-9 9-4 13-2 19-8 25-7 24-5 12-1 4 2 5-4 8-2 10 2 4-5 9-2 5 1h4l4-6 12-11 15-15 3-5z" fill="#FDD2BE"/>
<path transform="translate(723,159)" d="m0 0h11l10 6 10 8 11 5 17 3 5 16 6 10 9 8 12 5 3 1-1 8-3 17v22l3 19 5 15 8 14 8 10 9 8 14 7 12 3-8 18-6 19-5 23-3 23-1 12v51l-1 1h-34l-16-4-14-7-10-8-7-7-5-7-3 2 8 11 7 7 11 7 16 7 15 3h33l2 16 2 34v41l-2 23-5 25-6 20-10 24-11 19-12 17-11 12-8 8-17 13-19 11-10 5h-2l1-12 7-30 5-17 10-28 7-26 4-21 2-21v-24l-2-21-4-17-6-16-7-13-13-15-8-8-7-10-6-10-6-16-1-10 23-5 21-3 18-2 1-2v-8l-5-25-2-11-21 6-5 1h-17l-12-4-5-3-2-5-4-2h-1l-2-10-7-12-15-3-12-6-13-10-3-1-1 5-9 13-8 8-12 9-11 10-13 17-6 9-1 3-5-2-12-11-8-7-8-8-8-7-2-3 2-1 3-12 6-47 5-31 5-16 6-8 8-7 26-14 9-3 29-4 13-4 11-6 5-5 3-13 7-28 22-15 10-5z" fill="#FDA684"/>
<path transform="translate(753,73)" d="m0 0h15l14 3 13 5 16 10 5 1 6-2 8-1h13l16 4 14 7 11 9 9 11 3 4 5-1 13-4 8 1 2 3-1 4-5 2-14 2 4 3 10 6 9 9 8 13 6 18 3 16 1 7v8l-5-2-8-7-7-6-10-5-8-2h-18l-11 4-11 6-12 12-7 11-5 11-4 16-1 14 2 14 5 15 9 14 8 8 10 6 17 5 20 2 1 4-11 8-9 4-9 2-5 8-10 28-5 22-4 31-1 54 14-5 16-10 8-7 7-9h4l-1 6-8 9-10 8-14 8-12 5h-3l3 45v54l-3 24-5 24-6 19-8 19-10 19-12 17-11 13-14 14-15 11-13 8-23 12v30l2 18 6 28 8 26 14 38 6 19 6 27 3 23 1 11v16l16 4 71 18 30 8 41 11 4 2 2 5v6l-11-1-23-5-8-2h-7l-2-5-4 1-36-9-25-7-1 3-1-5-7-1-38-10-1 22-3 30-6 31-7 24-7 20-9 20-12 23-7 12-8 16-10 25-4 16-1 8v20l3 12 6 11 7 6 11 4h10l13-4h2l2-6 4-3h9l6 4 1 2v8l-5 6-6 1-8-3-3-1-17 4-13-1-10-4-9-8-6-10-4-13-1-8v-16l2-15 6-20 2-10-9 9h-2l-2-12-19-61-12-41-2-16 4 2 7 8 13 18 11 16 12 18 13 21 4 5 9-15 8-15 11-26 8-26 5-23 4-26 3-42-10-2-40-10-13-2-2-1v-2l-8-1-48-13-37-8 3-3-1-4-11-2v-1l10 1 35 7 71 17 49 12v-13l-3-29-5-25-8-27-13-34-8-25-6-27-3-24v-28l-21 7-33 8-15 3-13 43-12 39-16 49-11 32-3 1v-7l15-44 17-54 14-47 4-12-13 4-24 7-16 7-16 8-5-1 2-5 4-5 23-10 25-8 21-5 4-10 14-44 16-54 8-26h4l-4 16-14 48-10 33-9 30-2 6 43-10 22-7h2v-10l6-29 9-30 13-40 5-22 3-22v-32l-3-23-5-17-5-12-8-12-12-13-9-10-8-13-7-15-5-14-3-23v-29l1-15h4l3 3v38l3 22 7 21 6 12 7 10 9 10 11 12 7 11 7 16 4 14 3 17 1 13v24l-3 27-6 27-8 26-8 22-7 27-5 26 23-12 12-8 10-8 10-9 8-8 13-18 9-15 8-16 8-21 6-23 3-16 2-23v-41l-3-50-5 1h-28l-15-3-16-7-11-7-9-9-7-10 3-3 5 5 9 10 12 9 14 6 13 3h34v-51l3-29 5-25 6-20 7-17 2-3-16-5-10-6-10-9-9-12-8-16-4-14-2-15v-22l5-25-9-2-10-6-7-7-7-14-2-11h-8l-12-3-11-6-11-9-6-3h-11l-10 4-12 7-11 8-6 3h-11l-12-3-11-7-7-6-11-14-9-17-5-16-3-21v-7l3-9 7 1 15 7 14 4h23l16-4 35-12 17-4z" fill="#112750"/>
<path transform="translate(730,774)" d="m0 0h2l1 28 3 24 6 27 12 36 10 26 7 24 5 25 3 29v14l-121-29-45-9h-7l-7 6v-2l-5-1-14-10-11-9h-2l4 9 7 12 4 7-2 2-5-1-5-5-9-16-6-16-4-20-1-17v-23l3-15 7-19 9-16 11-15 4-4 5 1 24-12 24-8 19-5h2l-3 12-20 66-18 56-8 23-1 7 3-3 24-72 12-39 15-50 5-2 33-7 27-8z" fill="#FC6057"/>
<path transform="translate(889,188)" d="m0 0h18l13 4 10 7 8 8 5 3h3v2l6 2 8 6 13 12 7 7 15 12 6 8 7 16 10 28 8 18 8 15 9 12 8 9 14 11 16 11 5 2-5 5-12 9-17 12-26 17-3 1-1-5-8-7-16-10-23-12-11-7-16-12-14-12-10-11-10-15-3-4-2-2-20-2-19-6-10-7-8-8-8-13-5-15-2-14 1-14 4-16 8-16 7-9 10-10 15-8zm62 89m-4 7-10 19-9 11-4 5 2 5 7 7 15 11h3v-33l3-19-1-5-1-1z" fill="#FDA685"/>
<path transform="translate(760,440)" d="m0 0h19l3 9 5 10 6 7 10 6 9 3 6 1h15l15-3 1 8v9l-1 1h-34l-16-4-14-7-10-8-7-7-5-7-3 2 8 11 7 7 11 7 16 7 15 3h33l2 16 2 34v41l-2 23-5 25-6 20-10 24-11 19-12 17-11 12-8 8-17 13-19 11-10 5h-2l1-12 7-30 5-17 10-28 7-26 4-21 2-21v-24l-2-21-4-17-6-16-7-13-13-15-8-8-7-10-6-10-6-16-1-10 23-5z" fill="#FC6057"/>
<path transform="translate(706,384)" d="m0 0 4 2 2 2v38l3 22 7 21 6 12 7 10 9 10 11 12 7 11 7 16 4 14 3 17 1 13v24l-3 27-6 27-8 26-8 22-7 27-5 26 23-12 12-8 10-8 10-9 8-8 13-18 9-15 8-16 8-21 6-23 3-16 2-23v-41l-3-50-5 1h-28l-15-3-16-7-11-7-9-9-7-10 3-3 5 5 9 10 12 9 14 6 13 3h34v-51l3-29 2-6 4 3 3-2-2 19-1 10-1 54 14-5 16-10 8-7 7-9h4l-1 6-8 9-10 8-14 8-12 5h-3l3 45v54l-3 24-5 24-6 19-8 19-10 19-12 17-11 13-14 14-15 11-13 8-23 12v30l2 18 6 28 8 26 14 38 6 19 6 27 3 23 1 11v16l16 4 71 18 30 8 41 11 4 2 2 5v6l-11-1-23-5-8-2h-7l-2-5-4 1-36-9-25-7-1 3-1-5-7-1-38-10-1 22-3 30-6 31-7 24-7 20-9 20-12 23-7 12-8 16-10 25-4 16-1 8v20l3 12 6 11 7 6 11 4h10l13-4h2l2-6 4-3h9l6 4 1 2v8l-5 6-6 1-8-3-3-1-17 4-13-1-10-4-9-8-6-10-4-13-1-8v-16l2-15 6-20 2-10-9 9h-2l-2-12-19-61-12-41-2-16 4 2 7 8 13 18 11 16 12 18 13 21 4 5 9-15 8-15 11-26 8-26 5-23 4-26 3-42-10-2-40-10-13-2-2-1v-2l-8-1-48-13-37-8 3-3-1-4-11-2v-1l10 1 35 7 71 17 49 12v-13l-3-29-5-25-8-27-13-34-8-25-6-27-3-24v-28l-21 7-33 8-15 3-13 43-12 39-16 49-11 32-3 1v-7l15-44 17-54 14-47 4-12-13 4-24 7-16 7-16 8-5-1 2-5 4-5 23-10 25-8 21-5 4-10 14-44 16-54 8-26h4l-4 16-14 48-10 33-9 30-2 6 43-10 22-7h2v-10l6-29 9-30 13-40 5-22 3-22v-32l-3-23-5-17-5-12-8-12-12-13-9-10-8-13-7-15-5-14-3-23v-29l1-15z" fill="#112750"/>
<path transform="translate(301,1814)" d="m0 0 73 8 7 1 1 4-2 13v16l1 2 2 63-7 2-27 4-36 3-4 1h-54l-38-2-41-4-20-2-3-26-4-15-1-4 12-5 26-7 26-5h6l4 2 5-4 8-2 10 2 4-5 9-2 5 1h4l4-6 12-11 15-15 3-5z" fill="#FC6057"/>
<path transform="translate(1448,1606)" d="m0 0 1 3 5 2 24 14 8 4 15 4 21 9 30 13 4 2-1 7-10 33 12-32 1 4-11 32-11 26-9 20-13 27-12 22-10 17-14 22-11 16-14 19-5 6-3 1-2-3-5-3-5-10-3-14 3-2 11 1 13 4 6 1 5-7 1-5-19-7-19-5-1-1 1-17 3-23 2-4 15-1v-5l-11-1-3-1v-9l2-1 17-1 1-4-1-1-13-1-4-1v-8l1-3 3-1 18-1 3-1v-4l-6-1-16-1v-11l1-1 23-2 4-2 2-5-14 1h-12l-5-3-8-11-9-13-3-10v-3l-3 1 3-9 15-35zm95 93-1 5 2-2zm-2 5-1 5 2-2zm-2 5-1 5 2-2zm-2 5 1 2zm-1 2 1 3zm-1 3 1 2z" fill="#FC6057"/>
<path transform="translate(1256,256)" d="m0 0h17l113 10 20 2 2 1v9l-2 23-3 67-3 56-1 13-4 12-6 9-7 7-10 5-8 2h-12l-12-4-11-8-7-10-4-12v-15l4-11 8-11 11-7 9-3h16l11 4 10 6 4-99-120-10v33l-2 68v38l-4 11-7 9-8 7-9 4-13 2-13-2-10-5-6-5-6-9-4-11-1-12 2-10 6-12 8-8 11-6 9-2h9l11 3 11 5 1-38z" fill="#132850"/>
<path transform="translate(164,764)" d="m0 0 20 2 68 9 43 6-1 14-4 27-8 65-6 41-4 11-7 9-8 6-10 3h-14l-10-4-10-9-5-8-3-12 1-11 3-9 8-10 10-6 8-2h10l13 4 10 6 3-24 6-54v-8l-49-7-54-7-1 13-8 64-6 39-4 12-7 9-9 6-10 3h-10l-10-3-9-6-6-7-4-9-1-5v-12l4-11 4-6 8-7 10-4 9-1 13 3 10 6 3 1 4-26 5-38 2-25 1-20 1-7z" fill="#142850"/>
<path transform="translate(667,229)" d="m0 0 1 2h3v2h-5l1 6-2 4-5 2-13 7-4 12h-3l-8-5-5-1h-9l-10 3-3 2-1 3 12-4 10-1 10 3 5 3v2h2l-1 5-1 3-10-1-5-1h-16l-3 1 19 1 3 2-7 1-3 6 6-2 2-3h8l2 1 1 26 3 11 5 8 7 12 3 4h-3l-1 5-9 13-8 8-12 9-11 10-13 17-6 9-1 3-5-2-12-11-8-7-8-8-8-7-2-3 2-1 3-12 6-47 5-31 5-16 6-8 8-7 26-14 9-3 29-4 13-4z" fill="#FDA685"/>
<path transform="translate(400,271)" d="m0 0h7l14 10 13 11 11 11 11 15 8 16 4 13 1 5v21l-3 12-6 12-8 10-8 8-5 2-3-2v-9l2-17v-13l-3-16-5-12-7-11-11-13-7-6-2 13-7 35-9 38-9 31-7 20-6 11-8 10-10 7-9 3h-17l-12-4-9-7-6-8-5-12-1-6v-10l4-13 6-9 8-7 12-5 5-1h13l12 4 9 6 8 9v2h2l2-9 10-38 8-38 9-51 2-15zm11 24-2 3 1 4 17 17 10 14 8 16 4 10 3 1v-8l-5-14-9-15-9-10-7-8-8-9z" fill="#132850"/>
<path transform="translate(1515,741)" d="m0 0 7 2 13 11 10 10 13 17 9 16 5 14 1 5v28l-5 13-7 10-9 10-7 4-5-1 1-10 3-15v-20l-3-12-8-16-7-10-9-10-3 1-11 37-16 47-9 22-9 17-11 12-12 6-5 1h-11l-12-4-9-7-7-10-3-8-1-13 2-11 5-9 7-8 12-6 4-1h13l11 4 10 8 8 10 2 1 3-9 8-21 9-28 11-38 9-35zm6 24-1 5 6 8 11 13 7 11 8 16 4 10h2v-8l-3-12-8-16-10-13-11-12-2-2z" fill="#55C0D7"/>
<path transform="translate(145,1879)" d="m0 0 4 1 3 8 3 16 1 9v10h11l37 4 26 2 25 1h54l16-2 33-3 18-3h7l5 18 1 11-52 5-15 1h-90l-38-3-42-6-34-7-24-8-9-4 5-5 5-16 4-8 10-8 16-8 13-2z" fill="#FDFBFA"/>
<path transform="translate(889,188)" d="m0 0h18v1l-16 3-14 7-7 6 2 4 9 12 9 8v3l7-3h4l3 6 5 3 5-2 9-6 4-1h12l5 3v2l-18 1-8 4-8 7-5 9 1 5 4 4 8-4 12-8 11-3h10l-4 2-5 2-2 4 2-1h25v3h-22l-9 3-8 7-5 8 1 3 6 1 8-4 6-4 7 7h4l2-5h1v6l-1 2-10 2-8 16-9 12-5 6-8 4-7 2-1 3-20-2-19-6-10-7-8-8-8-13-5-15-2-14 1-14 4-16 8-16 7-9 10-10 15-8z" fill="#FC6057"/>
<path transform="translate(1299,1166)" d="m0 0h35l16 4 10 4 8 6 8 9 5 11 2 10v8l-2 3-5-2-11-11-11-7-10-4-12-2h-25l5 9 11 17 17 28 12 21 5 11 2 7v9l-4 11-4 6-8 7-11 4h-12l-11-4-9-8-5-10-2-11 3-12 5-8 8-7 8-3 5-1h11l-8-14-15-24-12-18-11-16-8-11-2-6 6-3zm13 13-15 1 1 4h22l11-1v-3l-2-1z" fill="#142850"/>
<path transform="translate(1224,382)" d="m0 0h9l11 3 12 6 12 16 1 6v18l-4 11-7 9-8 7-9 4-13 2-13-2-10-5-6-5-6-9-4-11-1-12 2-10 6-12 8-8 11-6z" fill="#FC6157"/>
<path transform="translate(1448,1606)" d="m0 0 1 3 5 2 24 14 8 4 9 2 2 4 2 5-2 11-8 21-9 19-7 9-5-1-13-12-9-6-6 1-13 7h-3l-3-10v-3l-3 1 3-9 15-35z" fill="#FDA785"/>
<path transform="translate(235,886)" d="m0 0h10l13 4 10 6 9 16 1 4-3 16-5 10-7 8-9 5-7 2h-14l-10-4-10-9-5-8-3-12 1-11 3-9 8-10 10-6z" fill="#FC6158"/>
<path transform="translate(688,218)" d="m0 0h6l2 2-1 6-9 8-5 2 3 17 1 5 4-1 6-5 4 1 2 3v5l-8 6-4-1-1-3-3 1-2 24v27l11 33 1 8-7-1-12-5-10-9-7-8-8-14-4-12-2-13v-19l10-23 8-9 8-7 6-7 7-8z" fill="#102750"/>
<path transform="translate(284,1780)" d="m0 0 34 2 38 4h15l1-3h2l-1 5 16 1 9 2 3 2-1 8-6 23h-13l-79-9-10-1-9-3v-29z" fill="#122750"/>
<path transform="translate(301,1814)" d="m0 0 73 8 7 1 1 4-2 13v17l-6 7-6 3-13 2-13 1h-42l2-6 9-17 2-6v-7l-12-8-1-4-2-1 3-5z" fill="#FDA785"/>
<path transform="translate(544,376)" d="m0 0 5 2 7 8 10 9 7 7 8 7 9 7 3 1-1 7-16 33h-3l-14-14-11-7-9-4-10-2h-12l-10 1 8-16 9-16 10-18z" fill="#FC6057"/>
<path transform="translate(853,404)" d="m0 0 4 3 3-2-2 19-1 10-1 54 14-5 16-10 8-7 7-9h4l-1 6-8 9-10 8-14 8-12 5h-3l3 45v54l-3 24-5 24-6 19-8 19-10 19-12 17-6 7-2-1 12-15 9-15 8-15 3-7-4 1-10 21-11 17-5 6h-2l2-5 8-11 12-21 10-25 6-21 4-21 2-23v-41l-3-50-5 1h-28l-15-3-16-7-11-7-9-9-7-10 3-3 5 5 9 10 12 9 14 6 13 3h34v-51l3-29z" fill="#102750"/>
<path transform="translate(1420,1581)" d="m0 0 5 2 23 13 2 2v6l-11 24-20 47-2 5-3 4-5-1-6-4-9-4-1-5 4-19 1-6h2l1-7 8-24 8-26z" fill="#112750"/>
<path transform="translate(897,229)" d="m0 0h4l3 6 5 3 5-2 9-6 4-1h12l5 3v2l-18 1-8 4-8 7-5 9 1 5 4 4 8-4 12-8 11-3h10l-4 2-5 2-2 4 2-1h25v3h-22l-9 3-8 7-5 8 1 3 6 1 8-4 6-4 5 5-1 5-3-1-1-2-4 2v2l-8 2h-35l-6-3-7-8-4-11v-13l4-12 6-7z" fill="#102750"/>
<path transform="translate(830,89)" d="m0 0h13l16 4 14 7 11 9 9 11 4 6 7 20 5 25v7h-18l-4-15-5-19-7-14-8-11-9-8-15-8-9-3-16-3-5-3 3-2 6-2z" fill="#FC6057"/>
<path transform="translate(378,1040)" d="m0 0h5l-1 9-6 14-9 15-8 10-3 3-5-1-2-13h-9l-28 6h-6l1-7 8-14 11-14 8-7h5l2 8 16-4z" fill="#FC6258"/>
<path transform="translate(284,164)" d="m0 0h4l1 2v20l-4 20-4 12-6 1-2-3-2-11-12 6-19 13-6 4-4-1 1-9 6-21 5-12 4-4 4 1 2 4 9-5 16-13z" fill="#FC6258"/>
<path transform="translate(559,1277)" d="m0 0 3 1-2 5-14 19-9 13-14 15-16 15-8 7-7 7-9 12-2 5v9l6 9 7 6 2 3v10l-8 23-17 44-6 19-8 38-6 26-5 17-7 20-15 34-8 23-6 24-9 28-3 9-8 25-15 36-4 8h-3l1-5 4-8 6-16 5-14 3-8 9-26 5-16 10-34 4-15 3-8 6-15 7-14 7-19 3-7 6-23 5-21 6-29 7-26 7-19 5-12 8-21 7-19v-9l-8-7-7-10v-11l4-9h2l2-4 7-8 13-13 8-7 12-11 7-8 9-11 3-5h2l2-5 10-15z" fill="#FCE8E4"/>
<path transform="translate(1557,1665)" d="m0 0 1 4-11 32-11 26-9 20-13 27-12 22-10 17-14 22-11 16-14 19-5 6-3 1-2-3-5-3-5-10-3-14 3-2 11 1 13 4 6 1 5-7 2-9 7-11 10-16 7-11 7-14 6-10 8-16 16-34 11-27 5-13 1 4-2 7zm-14 34-1 5 2-2zm-2 5-1 5 2-2zm-2 5-1 5 2-2zm-2 5 1 2zm-1 2 1 3zm-1 3 1 2z" fill="#FDD5C2"/>
<path transform="translate(1306,205)" d="m0 0h49l19 3 12 5 11 7 16 16 10 14v6l-3 1-6-5-9-12-9-10-13-9-10-4-8-2-28-2h-13l-33 2-25 4-19 5-11 4-4-2 1-5 12-5 21-6 17-3z" fill="#FC645A"/>
<path transform="translate(1280,169)" d="m0 0h48l31 3 20 4 16 6 11 7 10 8 7 6v5l-1 1h-5l-11-10-13-8-12-5-16-4-33-4-13-1h-29l-19 2-24 5-20 6-4-1-1-4 7-4 18-6 25-5z" fill="#FC645A"/>
<path transform="translate(1363,710)" d="m0 0h5l2 6 10-1 14-3h10l-1 8-7 13-8 11-7 8h-5l-1-1v-11l-1-1-13 1-14 2h-10l2-6 9-12 11-12z" fill="#FC6258"/>
<path transform="translate(659,244)" d="m0 0 2 2-6 8-9 21v19l3 17 5 12 9 14 10 10 12 6 10 3 1-2 1 7-1 1h-7l-13-4-11-7-9-7-9-13-6-11-3-7-1-5v-26l-10-1-2 4-1 1h-5l1-5 2-2 4-1-19-1-1-2 4-1h16l9 2h5l3-7h-2v-2l-5-2-10-3-14 2-5 2h-3l1-4 8-4 5-1h9l7 2 8 5 4-12 12-7z" fill="#FC6057"/>
<path transform="translate(871,365)" d="m0 0h1l2 16 2 43 1 13 2 3-3 2-1 11-3 6-10 9-3 2h-3v-36l4-31 6-25z" fill="#FDA685"/>
<path transform="translate(1073,561)" d="m0 0h4l7 14 15 35 10 24 10 20 10 15 9 10v2l4 2 8 7 11 6 11 4 8 2v4l-10-1-11-4-11-6-15-13-11-14-10-16-8-16-9-21-2-5v-3h-2l-2 6v13l4 16 8 16 10 14 11 13 2 3v3l-5-2-8-8-12-17-9-16-5-14-1-5v-16l4-6 2-2-1-5-16-37z" fill="#102750"/>
<path transform="translate(819,369)" d="m0 0h3l-2 6-10 15-12 17-13 16-4 5h-2l-6-30v-7l29-14z" fill="#112750"/>
<path transform="translate(129,1883)" d="m0 0 3 1 6 23 1 11-10-1-30-8-3-1 1-5 5-6 14-9 9-4z" fill="#FC6157"/>
<path transform="translate(1117,290)" d="m0 0h2l1 23-3 15-8 24-5 13v3l-10 8-2-1-1-3 9-26 5-27 2-11zm-24 81 1 2z" fill="#FDD4C1"/>
<path transform="translate(642,550)" d="m0 0 3 1-2 5-7 10-9 17-5 15-5 23-2 18v48l-3 4-3-7-17-16-5-8-1-7 4 2 7 11 11 11h1v-27l2-22 5-27 8-24 8-15 8-11z" fill="#102750"/>
<path transform="translate(879,971)" d="m0 0 10 1 30 9 84 22 39 10 5 3-1 2-13-2-55-14-61-16-36-11z" fill="#102750"/>
<path transform="translate(1547,1683)" d="m0 0 1 4-8 22-4 10-1 6-14 30-10 20-12 22-10 17-7 10-3 6h-2l-1 5-6 8-1-4 2-5 6-10 10-16 7-11 7-14 6-10 8-16 16-34 11-27z" fill="#FDF5F1"/>
<path transform="translate(941,721)" d="m0 0 2 1 1 12 5 10 11 12 10 9 16 12 19 12 21 8 2 4h-7l-16-6-14-8-15-11-11-9-10-9-8-8-6-10-2-6v-10z" fill="#102750"/>
<path transform="translate(701,260)" d="m0 0 3 1-1 7-8 16-6 15 2 6-4-1-3 1-1 3h-1v-20l2-24 2-2 4 4 4-1z" fill="#FDA483"/>
<path transform="translate(750,217)" d="m0 0h7l27 9 10 5 3 3-2 6-4 1-30-11-12-5-1-5z" fill="#102750"/>
<path transform="translate(1287,1094)" d="m0 0 6 1 16 15 8 7 10 10 8 7 6 7-1 4-4 1-22-22-8-7-15-13-6-7z" fill="#FC6258"/>
<path transform="translate(1433,1845)" d="m0 0 11 1 13 4v4l-12 17-2 2-4-1-5-8-4-16z" fill="#FC645A"/>
<path transform="translate(552,920)" d="m0 0 5 1 5 20 6 15 6 12 8 12-2 3-5-1-5-5-9-16-6-16-3-13z" fill="#192A51"/>
<path transform="translate(562,563)" d="m0 0h1v9l-9 48-8 30-6 17-3 4h-2l1-7 8-26 6-25 9-45 1-4z" fill="#102750"/>
<path transform="translate(1127,424)" d="m0 0h12l7 2v3h-21l-16 4-16 7-14 9-14 12-9 10h-4l2-5 9-10 10-9 15-10 17-8 15-4z" fill="#102750"/>
<path transform="translate(208,727)" d="m0 0h20l33 3 12 3 10 5 6 5-2 2-11-7-16-5-9-1h-47l-22 2-22 5-8 2h-5l1-2 13-5 18-4z" fill="#FDD1BD"/>
<path transform="translate(562,610)" d="m0 0h3l1 2v24l-3 14-5 13-6 11-7 9-9 8-8 5h-6l2-4 13-9 8-8 8-13 6-16 2-13z" fill="#102750"/>
<path transform="translate(712 1e3)" d="m0 0 4 1-2 30-3 22-5 23-5 18-6 16-3 1 1-7 5-14 6-24 5-33z" fill="#FCE6E1"/>
<path transform="translate(203,697)" d="m0 0 26 1 26 3 21 5 9 4 12 7 7 6h-3l-14-9-13-5-17-4-24-3-10-1h-34l-28 5-17 4-3-1 10-4 21-5 12-2z" fill="#FDB699"/>
<path transform="translate(559,1277)" d="m0 0 3 1-2 5-14 19-9 13-14 15-16 15-8 7-7 7-9 12-3 8-3 1 1-8 3-6h2l2-4 7-8 13-13 8-7 12-11 7-8 9-11 3-5h2l2-5 10-15z" fill="#FCF2EE"/>
<path transform="translate(946,625)" d="m0 0 5 1 13 22 12 19 14 21 10 14-4 1-5-5-10-14-12-19-15-24-8-14z" fill="#102750"/>
<path transform="translate(517,429)" d="m0 0h12l13 3 13 7 12 11 8 8 1 6h-4l-11-14-10-8-13-6-4-1h-16l-12 3h-4l1-5 3-2z" fill="#102750"/>
<path transform="translate(897,1050)" d="m0 0 4 2 5 29 5 28 3 12 3 14 4 21v6l-3-1-6-27-4-21-6-28-5-32z" fill="#FCE1DB"/>
<path transform="translate(1123,1501)" d="m0 0 9 3 16 7 24 15 15 9 28 14 17 7 11 4 1 2h-8l-1-2-9-2-5-3-6-2-21-10-17-10-20-12-9-5v-2l-5-1-8-5-6-1-4-2-4-1z" fill="#FCAC9B"/>
<path transform="translate(770,1308)" d="m0 0h9l6 4 1 2v8l-5 6-6 1-8-3-2-3-1-8 4-6z" fill="#FC6258"/>
<path transform="translate(828,1032)" d="m0 0h4l5 16 7 15 8 11 8 9 12 9 17 9 10 4 1 3-7-1-21-10v-2l-4-1-2-1v-2l-4-2-8-7-10-11-8-14-5-11z" fill="#FCE8E4"/>
<path transform="translate(1309,1080)" d="m0 0h12l7 4 5 4 7 8 7 7 1 6h-5l-17-17-6-4h-13l-2-2 1-4z" fill="#FC6258"/>
<path transform="translate(710,254)" d="m0 0h2l-1 8-14 27-2 5 1 6 10 8 3 3-1 4-4-1-14-11-2-4 7-17 12-25z" fill="#112850"/>
<path transform="translate(606,968)" d="m0 0h7v2l8 1 3 1 2 5-5 4-16 3-10 1-2 1 2-6 3-5z" fill="#2A405E"/>
<path transform="translate(662,1165)" d="m0 0h3l-1 3-10 8-21 18-1 2h-2v2l-18 18-13 14-6 7h-3v-2h2l2-4 10-13 32-32 11-9 13-11z" fill="#FCC5B6"/>
<path transform="translate(681 1e3)" d="m0 0h3l-3 22-2 11v24l3 10 6 8 6 5 4 2-3 1-6-2-6-5-5-8-4-13v-19l4-27z" fill="#FCE2DD"/>
<path transform="translate(801,769)" d="m0 0 4 1 6 7 8 16 4 13 3 19v14l-4-1-3-27-5-17-8-15-5-7z" fill="#102750"/>
<path transform="translate(499,69)" d="m0 0 2 1 15 43 9 29v3h-2l-7-16-11-30-6-21z" fill="#FDD1BD"/>
<path transform="translate(941,249)" d="m0 0h10l-4 2-5 2-2 4 2-1h25v3h-22l-9 3-6 3-3 3-5-1-2-6 5-6 8-4z" fill="#102750"/>
<path transform="translate(893,918)" d="m0 0 5 1 8 7 10 6 13 5 9 2 13-1 5-1 1 2-4 4-4 1h-12l-16-4-14-7-11-9-3-4z" fill="#102750"/>
<path transform="translate(836,667)" d="m0 0 4 1-3 9-9 17-8 12-11 14-10 11-3 1v-4l8-8 10-13 7-11 8-14z" fill="#214160"/>
<path transform="translate(483,993)" d="m0 0h1l-1 9-18 47-5 10h-1l1-9 8-24 12-28z" fill="#FDD2BE"/>
<path transform="translate(1557,1665)" d="m0 0 1 4-11 32-11 26-9 20-13 27-2-1 2-6 11-22 10-23 11-28z" fill="#FDD8C8"/>
<path transform="translate(630,304)" d="m0 0h4l7 30 1 11-2 9-4 7h-1l1-11v-13l-6-28z" fill="#112951"/>
<path transform="translate(753,323)" d="m0 0 2 1-2 4-5 4-8 4-6 2h-19l-5-3-2-3 4-1 8 2h11l10-3z" fill="#112851"/>
<path transform="translate(227,699)" d="m0 0h13l20 3 19 5 12 6 12 9 1 2-4-2-13-8-13-5-17-4-30-4z" fill="#FDAB8D"/>
<path transform="translate(267,1853)" d="m0 0 4 2 8 11 4 6v3l-6 1-8-9-6-10 1-3z" fill="#FDF8F5"/>
<path transform="translate(246,1858)" d="m0 0 3 1 8 17v4h-7l-10-18 1-3z" fill="#FDF4F0"/>
<path transform="translate(1245,1562)" d="m0 0 9 2 12 5 18 8 21 11 16 9 7 5v2l-4-2-17-10-8-4h-3l-1-2-17-8-4-1-1-2-5-1-1-2-16-6-6-3z" fill="#FC6057"/>
<path transform="translate(477,87)" d="m0 0h3l-1 4-4 8v10l4 13 5 11-1 3-7-11-5-13-1-4v-8l4-10z" fill="#FDD2BE"/>
<path transform="translate(684,282)" d="m0 0 1 3 7 1 1-2-1 7-3 9 2 5-4-1-3 1-1 3h-1v-20z" fill="#FCC6B2"/>
<path transform="translate(610,274)" d="m0 0h16l17 4v2l-8 2-8-1-2 4-1 1h-5l1-5 2-2 4-1-19-1-1-2z" fill="#102750"/>
<path transform="translate(771,256)" d="m0 0h3l1 4-7 6-7 2-8-1-7-4-1-3 2-2 5 1 4 2h7l7-4z" fill="#112851"/>
<path transform="translate(618,257)" d="m0 0h9l7 2 8 5 2-1-1 5-5-2-7-3-7-1-12 2-5 2h-3l1-4 8-4z" fill="#102850"/>
<path transform="translate(1061,1477)" d="m0 0 11 7 8 4 16 6 11 3 6 1 3 2v3l-4-1v-2h-9v-2h-7l-11-4-15-7-8-7z" fill="#FCE7E1"/>
<path transform="translate(224,1861)" d="m0 0 5 5 3 11v4h-6l-3-5-4-10 1-3z" fill="#FDF3EF"/>
<path transform="translate(932,253)" d="m0 0h3l1 7-2 3-5 3-4 2-3-1-2-6 6-5z" fill="#20405F"/>
<path transform="translate(155,1926)" d="m0 0h11l35 3 3-1h13l38 2v1h-62l-38-4z" fill="#FDCAB4"/>
<path transform="translate(944,273)" d="m0 0 5 5-1 5-3-1-1-2-4 2v2l-8 2h-9l-2-2 1-2h9l3-1 5-5z" fill="#152A51"/>
<path transform="translate(662,1165)" d="m0 0h3l-1 3-10 8-14 12-8 7h-3l2-4 13-12 14-11z" fill="#FCEEE9"/>
<path transform="translate(984,1374)" d="m0 0 4 4 10 14 8 14 3 7-1 4-5-5-1-5 3 3-4-7-1 2-4-8 2-1-3-1-9-13-2-4z" fill="#FC8C7E"/>
<path transform="translate(442,1589)" d="m0 0h2l-3 11-9 20-6 13-8 24-3 2 3-11 8-21 12-27z" fill="#453754"/>
<path transform="translate(517,429)" d="m0 0h12l-2 4-8 1-6 2-7 2h-4l1-5 3-2z" fill="#152850"/>
<path transform="translate(1123,1501)" d="m0 0 9 3 16 7 16 10v2l-4-1-12-6v-2l-5-1-8-5-6-1-4-2-4-1z" fill="#FC8B7E"/>
<path transform="translate(235,729)" d="m0 0h17l14 2 12 4 10 7v3l-12-7-16-5-25-3z" fill="#FDAD8D"/>
<path transform="translate(635,293)" d="m0 0h1l5 32 2 11v12h-1l-3-18-5-21-1-8z" fill="#FCC6B3"/>
<path transform="translate(1458,1851)" d="m0 0 5 1-3 5-7 10-6 8-3 1-1-4 11-15z" fill="#FDF4F0"/>
<path transform="translate(1064,1395)" d="m0 0h2v12l-9 17-8 10-3 1 2-4 9-12 4-10 1-7-1-3 1-3z" fill="#172850"/>
<path transform="translate(1479,1829)" d="m0 0 1 3-8 12-13 18-8 10-5 5-1-2h2l2-4 8-11 10-14 9-13 1-3z" fill="#FDBAA0"/>
<path transform="translate(623,979)" d="m0 0h5l-4 4-12 4h-17v-3l22-3z" fill="#FCEDE9"/>
<path transform="translate(944,1177)" d="m0 0 2 1 9 40 3 12-1 3-5-16-6-25-2-11z" fill="#102750"/>
<path transform="translate(950,268)" d="m0 0 6 1 1 4-1 7-5 1-5-6 1-4 3-1z" fill="#FCF3F0"/>
<path transform="translate(559,1277)" d="m0 0 3 1-2 5-14 19-4 5-4 2 2-4 4-6h2l2-5 10-15z" fill="#FCE3DC"/>
<path transform="translate(678,222)" d="m0 0 1 3-3 7-8 8-2-1v-6h5v-2h-3l1-3z" fill="#FD836E"/>
<path transform="translate(615,1209)" d="m0 0v3l-9 10-9 11-5 4h-2v-2h2l2-4 7-9 8-7z" fill="#FCF1EC"/>
<path transform="translate(1e3 839)" d="m0 0h3l5 10 1 4v7h-3l-6-17z" fill="#102750"/>
<path transform="translate(945,1513)" d="m0 0 4 2 14 9 16 8 10 4v2l-9-3-21-10-13-9z" fill="#2B3254"/>
<path transform="translate(1374,1627)" d="m0 0 15 8 9 5 2 3-2 1-6-3-14-8-6-3z" fill="#FCE2DC"/>
<path transform="translate(1339,1608)" d="m0 0 5 1 21 12 3 3-18-6-1-2-8-3z" fill="#FCA897"/>
<path transform="translate(1216,1550)" d="m0 0 9 3 18 7 1 2h-8l-1-2-9-2-5-3-6-2z" fill="#FC786C"/>
<path transform="translate(1557,1665)" d="m0 0 1 4-11 32-2 4-3 1 3-9z" fill="#FDC6B0"/>
<path transform="translate(473,109)" d="m0 0h2l4 13 5 11-1 3-7-11-4-10v-5z" fill="#FDB597"/>
<path transform="translate(167,701)" d="m0 0h6v2l-16 4-13 3-3-1 10-4z" fill="#FDAF8F"/>
<path transform="translate(665,529)" d="m0 0h5l-2 4-10 8-4 1 1-4 7-7z" fill="#102750"/>
<path transform="translate(1164,1522)" d="m0 0 5 2 18 11 2 2-4 1-9-6-11-6-3-3z" fill="#FCAC9B"/>
<path transform="translate(817,968)" d="m0 0h6l-1 4-10 3h-5l1-4z" fill="#102850"/>
<path transform="translate(957,1305)" d="m0 0 3 1 8 24-1 5-2-3-8-25z" fill="#4B3853"/>
<path transform="translate(710,254)" d="m0 0h2l-1 8-3 6-5 2 1-7 4-8z" fill="#163055"/>
<path transform="translate(680,1186)" d="m0 0h2l-2 4-9 9-11 9-9 9v-3l12-12 11-9z" fill="#102750"/>
<path transform="translate(1547,1683)" d="m0 0 1 4-8 22-3 7-3 1 3-9z" fill="#FDE8DF"/>
<path transform="translate(942,256)" d="m0 0h25v3h-27z" fill="#102750"/>
<path transform="translate(984,1374)" d="m0 0 4 4 10 14-1 3h-2l-9-13-2-4z" fill="#F9ECE8"/>
<path transform="translate(629,278)" d="m0 0 7 1-1 2h-8l-2 4-1 1h-5l1-5 2-2z" fill="#182F54"/>
<path transform="translate(698,305)" d="m0 0h5l6 6-1 4-4-1-5-4z" fill="#1B385A"/>
<path transform="translate(937,279)" d="m0 0 3 1-3 5-5 1h-9l-2-2 1-2h9z" fill="#1E3C5D"/>
<path transform="translate(701,260)" d="m0 0 3 1-1 7-2 4h-2l-4-4 2-5z" fill="#FDC0AB"/>
<path transform="translate(1030,1452)" d="m0 0 6 1 12 11 1 3-5-2-5-5-5-3v-2l-4-2z" fill="#FCD7CF"/>
<path transform="translate(627,281)" d="m0 0h8l1 1v10l-5-5-5-1-2-1z" fill="#FCCDB9"/>
<path transform="translate(325,1928)" d="m0 0h11v1l6 1v1l-10 1h-12v-2z" fill="#FDE3D7"/>
<path transform="translate(464,973)" d="m0 0 3 1-9 7-5 8-2 6h-1l1-9 5-8z" fill="#FDB89C"/>
<path transform="translate(499,69)" d="m0 0 2 1 4 11v5h-4l-2-8z" fill="#FDB598"/>
<path transform="translate(1061,1477)" d="m0 0 11 7 12 6-5 1-12-6-6-6z" fill="#FCC9BC"/>
<path transform="translate(1145,1512)" d="m0 0 6 1 13 8v2l-4-1-12-6v-2h-3z" fill="#FCE3DC"/>
<path transform="translate(600,978)" d="m0 0 13 2 3 1-6 2h-14l4-2z" fill="#102850"/>
<path transform="translate(934,1220)" d="m0 0 3 1 5 22-1 5h-1l-6-26z" fill="#393252"/>
<path transform="translate(161,734)" d="m0 0 5 1-3 3-11 3h-5l1-2z" fill="#FDB598"/>
<path transform="translate(1492,1809)" d="m0 0 1 2-12 19-2-2 10-16z" fill="#FDD2BE"/>
<path transform="translate(702,1069)" d="m0 0h1v7l-4 14h-2l-1-3-4-2 5-1-1-2 4-4z" fill="#132C53"/>
<path transform="translate(212,698)" d="m0 0h17l-2 1v2l-29-1v-1z" fill="#FDBBA0"/>
<path transform="translate(1423,1667)" d="m0 0 1 3v11h-2l-1-5-3 1 3-9z" fill="#FCCBB9"/>
<path transform="translate(1060,1415)" d="m0 0 1 2-7 11-6 7h-2l2-4 9-12z" fill="#102750"/>
<path transform="translate(1101,1496)" d="m0 0 12 2 3 2v3l-4-1v-2h-9v-2h-7v-1z" fill="#FC8377"/>
<path transform="translate(942,252)" d="m0 0h6l2 1 11 1v1l-15 1-7 2 2-5z" fill="#FCC5B1"/>
<path transform="translate(611,944)" d="m0 0 3 1-3 10-3 1v-7l1-3h2z" fill="#1C3A5B"/>
<path transform="translate(1047,565)" d="m0 0h5l-2 4-5 3h-4l2-4z" fill="#102750"/>
<path transform="translate(1458,1858)" d="m0 0h2l-1 4-8 10-5 5-1-2h2l2-4 8-11z" fill="#FDB093"/>
<path transform="translate(1350,1615)" d="m0 0 6 1 12 7-2 1-8-4-6-1-3-3z" fill="#F16961"/>
<path transform="translate(559,1277)" d="m0 0 3 1-2 5-5 7h-3l2-5z" fill="#FCEFEA"/>
<path transform="translate(634,1194)" d="m0 0m-2 1 2 1-16 16v-3l10-11h2v-2z" fill="#1A3659"/>
<path transform="translate(520,131)" d="m0 0 2 1 3 10v3h-2l-4-8v-5z" fill="#FDBEA4"/>
<path transform="translate(1245,1562)" d="m0 0 9 2 12 5 1 2-6-1-15-6z" fill="#FC6A5E"/>
<path transform="translate(523,1411)" d="m0 0 6 5 5 6 8 6-2 1-8-6-9-10z" fill="#102750"/>
<path transform="translate(945,1513)" d="m0 0 4 2 13 9-1 2-11-7-5-4z" fill="#373453"/>
<path transform="translate(203,697)" d="m0 0 9 1v1l-25 2 1-3z" fill="#FDAA89"/>
<path transform="translate(1310,1592)" d="m0 0 4 1 13 8 1 3-4-2-13-8z" fill="#FC7363"/>
<path transform="translate(1227,1555)" d="m0 0 9 2 8 4-3 1h-5l-1-2-8-4z" fill="#F6877A"/>
<path transform="translate(1543,1705)" d="m0 0 1 3-5 12-3 1 3-9 3-6z" fill="#FDDBCC"/>
<path transform="translate(526,1319)" d="m0 0 1 2-7 8-3 3-3-1z" fill="#533752"/>
<path transform="translate(957,275)" d="m0 0h1v6l-1 2-9 1 1-5 6 1z" fill="#8B575F"/>
<path transform="translate(1133,1506)" d="m0 0 6 1 9 4-3 2-5-2-7-4z" fill="#FCA595"/>
<path transform="translate(1049,1467)" d="m0 0 4 2 7 7-1 3-10-10z" fill="#FCA89E"/>
<path transform="translate(685,262)" d="m0 0 3 1 2 3 4 2-9 2z" fill="#FCC1AE"/>
<path transform="translate(1537,1720)" d="m0 0 1 2-6 14h-2l3-9 3-6z" fill="#FDD6C3"/>
<path transform="translate(373,1287)" d="m0 0h2l-1 5-5 10-2 1 3-9z" fill="#313454"/>
<path transform="translate(1177,1530)" d="m0 0 12 6-4 2-9-6z" fill="#FC7265"/>
<path transform="translate(967,1336)" d="m0 0 3 1 4 11-1 3-2-3-4-10z" fill="#473753"/>
<path transform="translate(278,736)" d="m0 0 8 4 3 4h-3l-8-5z" fill="#FDD2BE"/>
<path transform="translate(696,256)" d="m0 0 2 2-1 4-5 3 1-7z" fill="#214160"/>
<path transform="translate(678,222)" d="m0 0 1 3-3 4h-5l2-4z" fill="#1F2B50"/>
<path transform="translate(526,429)" d="m0 0 3 1-2 3h-9l1-3z" fill="#214160"/>
<path transform="translate(928,1195)" d="m0 0 1 2h2l2 11-2 2-3-12z" fill="#5B3F57"/>
<path transform="translate(1479,1829)" d="m0 0 1 3-7 11-1-4 4-6 1-3z" fill="#FDC2AA"/>
<path transform="translate(941,1250)" d="m0 0 3 1 2 10-2 2z" fill="#463653"/>
<path transform="translate(998,1393)" d="m0 0 4 5-2 3 1 4-3-3-2-6h2z" fill="#EB635B"/>
<path transform="translate(1040,1013)" d="m0 0 6 2v3l-7-1z" fill="#153055"/>
<path transform="translate(1127,424)" d="m0 0h12l6 1-1 3-6-2-11-1z" fill="#4B465E"/>
<path transform="translate(959,256)" d="m0 0h8v3h-10l2-1z" fill="#20405F"/>
<path transform="translate(666,233)" d="m0 0h5l-1 5-3 2-1-5z" fill="#FC685C"/>
<path transform="translate(305,763)" d="m0 0 3 1 1 4-4-3z" fill="#FDC9B2"/>
<path transform="translate(1558,1663)" d="m0 0" fill="#FEA785"/>
<path transform="translate(449,995)" d="m0 0" fill="#FDD2BE"/>
<path transform="translate(309,768)" d="m0 0" fill="#FEA785"/>
<path transform="translate(310,770)" d="m0 0" fill="#FEA785"/>
<path transform="translate(304,762)" d="m0 0" fill="#FDD2BE"/>
<path transform="translate(288,745)" d="m0 0" fill="#FDD2BE"/>
<path transform="translate(305,725)" d="m0 0" fill="#FEA785"/>
<path transform="translate(304,724)" d="m0 0" fill="#FEA785"/>
</svg>
